<svg width="218" height="67" viewBox="0 0 218 67" fill="none" xmlns="http://www.w3.org/2000/svg">
<g filter="url(#filter0_i)">
<path d="M8.43569 61.1953H4.36411L3.56162 63.2987H1.49204L5.4707 53.4576H7.35444L11.3162 63.2987H9.23818L8.43569 61.1953ZM4.96387 59.6326H7.83594L6.3999 55.8989L4.96387 59.6326ZM12.3975 63.2987V53.4576H16.0382C17.2884 53.4576 18.243 53.6913 18.9019 54.1588C19.5664 54.6205 19.8986 55.2907 19.8986 56.1692C19.8986 56.6141 19.7719 57.0224 19.5185 57.3941C19.2707 57.7601 18.8906 58.0417 18.3781 58.2388C18.9187 58.3683 19.3467 58.6358 19.6621 59.0413C19.9775 59.4411 20.1352 59.9198 20.1352 60.4773C20.1352 61.3953 19.817 62.0964 19.1806 62.5807C18.5443 63.0594 17.6038 63.2987 16.3592 63.2987H12.3975ZM14.4501 59.0159V61.6599H16.3761C16.9505 61.6599 17.3785 61.5417 17.6601 61.3052C17.9417 61.063 18.0825 60.7589 18.0825 60.3928C18.0825 59.5031 17.5756 59.0441 16.562 59.0159H14.4501ZM14.4501 57.5799H16.241C16.7534 57.5686 17.1476 57.4616 17.4236 57.2589C17.7052 57.0562 17.8459 56.7605 17.8459 56.3719C17.8459 55.9271 17.6995 55.6061 17.4067 55.409C17.1195 55.2119 16.6915 55.1133 16.1227 55.1133H14.4501V57.5799ZM29.6975 55.1133H26.4368V63.2987H24.3841V55.1133H21.1657V53.4576H29.6975V55.1133ZM39.6061 58.602C39.6061 60.0887 39.1978 61.2657 38.3812 62.133C37.5703 63.0002 36.4975 63.4339 35.1628 63.4339C33.8338 63.4339 32.7554 63.0002 31.9275 62.133C31.0997 61.2601 30.6858 60.069 30.6858 58.5598V58.1712C30.6858 57.2026 30.8716 56.3494 31.2433 55.6117C31.6206 54.8683 32.1472 54.3024 32.8229 53.9138C33.4987 53.5196 34.2731 53.3225 35.1459 53.3225C36.4975 53.3225 37.5788 53.7646 38.3897 54.6487C39.2006 55.5272 39.6061 56.7183 39.6061 58.2219V58.602ZM37.5619 58.1543C37.5619 57.1238 37.3507 56.3382 36.9283 55.7975C36.506 55.2569 35.9118 54.9866 35.1459 54.9866C34.3913 54.9866 33.8 55.2569 33.372 55.7975C32.944 56.3382 32.73 57.1238 32.73 58.1543V58.602C32.73 59.6044 32.944 60.3872 33.372 60.9504C33.8056 61.5079 34.4026 61.7866 35.1628 61.7866C35.9287 61.7866 36.52 61.5135 36.9368 60.9673C37.3535 60.4154 37.5619 59.627 37.5619 58.602V58.1543ZM43.9564 53.4576L46.8032 60.5787L49.6246 53.4576H52.3108V63.2987H50.2665V60.6378L50.4777 55.8229L47.5043 63.2987H46.0852L43.1202 55.8651L43.3313 60.6378V63.2987H41.2871V53.4576H43.9564ZM60.3357 61.1953H56.2641L55.4616 63.2987H53.392L57.3707 53.4576H59.2544L63.2162 63.2987H61.1382L60.3357 61.1953ZM56.8639 59.6326H59.7359L58.2999 55.8989L56.8639 59.6326ZM71.5959 55.1133H68.3353V63.2987H66.2826V55.1133H63.0642V53.4576H71.5959V55.1133ZM79.4434 53.4576H81.4961V63.2987H79.4434V56.5156L74.9664 63.2987H72.9137V53.4576H74.9664V60.2155L79.4434 53.4576ZM88.7269 56.2452C88.7269 55.851 88.5693 55.5441 88.2539 55.3245C87.9385 55.0992 87.4796 54.9866 86.877 54.9866C86.3645 54.9866 85.9647 55.0851 85.6775 55.2823C85.3903 55.4794 85.2467 55.7469 85.2467 56.0847H83.194C83.194 55.2513 83.5347 54.5839 84.2161 54.0827C84.9032 53.5759 85.7957 53.3225 86.8939 53.3225C88.1103 53.3225 89.062 53.559 89.7491 54.0321C90.4361 54.4995 90.7796 55.1555 90.7796 56.0003C90.7796 56.5127 90.6248 56.9633 90.315 57.3518C90.0053 57.7404 89.5886 58.0445 89.0648 58.2641C89.6899 58.4669 90.1574 58.7738 90.4671 59.1849C90.7768 59.5904 90.9317 60.0493 90.9317 60.5618C90.9317 61.4572 90.5685 62.1611 89.842 62.6736C89.1155 63.1804 88.1328 63.4339 86.8939 63.4339C86.3702 63.4339 85.8605 63.3719 85.3649 63.248C84.875 63.1185 84.4526 62.9214 84.0978 62.6567C83.3995 62.1442 83.0504 61.4403 83.0504 60.5449H85.1031C85.165 61.3727 85.7648 61.7866 86.9023 61.7866C87.5725 61.7866 88.0709 61.6656 88.3975 61.4234C88.7241 61.1756 88.8874 60.849 88.8874 60.4435C88.8874 59.5087 88.2567 59.0328 86.9953 59.0159H85.7451V57.5292H87.0459C88.1666 57.5067 88.7269 57.0787 88.7269 56.2452ZM98.7539 61.1953H94.6823L93.8798 63.2987H91.8102L95.7889 53.4576H97.6726L101.634 63.2987H99.5563L98.7539 61.1953ZM95.282 59.6326H98.1541L96.7181 55.8989L95.282 59.6326ZM111.197 61.6515H112.835L112.666 66.1454H110.8V63.2987H102.716V53.4576H104.768V61.6515H109.136V53.4576H111.197V61.6515ZM120.852 53.4576H122.905V63.2987H120.852V56.5156L116.375 63.2987H114.322V53.4576H116.375V60.2155L120.852 53.4576ZM124.467 63.2987L126.816 58.8892C125.611 58.4049 125.008 57.5743 125.008 56.3973C125.008 55.4794 125.346 54.7613 126.022 54.2432C126.697 53.7195 127.629 53.4576 128.818 53.4576H132.703V63.2987H130.651V59.5481H128.615L126.672 63.2987H124.467ZM127.061 56.524C127.061 56.9407 127.196 57.2758 127.466 57.5292C127.742 57.777 128.181 57.9009 128.784 57.9009H130.651V55.1133H128.784C128.238 55.1133 127.812 55.2372 127.508 55.485C127.21 55.7271 127.061 56.0735 127.061 56.524ZM146.844 55.1133H143.583V63.2987H141.531V55.1133H138.312V53.4576H146.844V55.1133ZM156.753 58.602C156.753 60.0887 156.344 61.2657 155.528 62.133C154.717 63.0002 153.644 63.4339 152.31 63.4339C150.98 63.4339 149.902 63.0002 149.074 62.133C148.246 61.2601 147.832 60.069 147.832 58.5598V58.1712C147.832 57.2026 148.018 56.3494 148.39 55.6117C148.767 54.8683 149.294 54.3024 149.97 53.9138C150.645 53.5196 151.42 53.3225 152.293 53.3225C153.644 53.3225 154.725 53.7646 155.536 54.6487C156.347 55.5272 156.753 56.7183 156.753 58.2219V58.602ZM154.709 58.1543C154.709 57.1238 154.497 56.3382 154.075 55.7975C153.653 55.2569 153.059 54.9866 152.293 54.9866C151.538 54.9866 150.947 55.2569 150.519 55.7975C150.091 56.3382 149.877 57.1238 149.877 58.1543V58.602C149.877 59.6044 150.091 60.3872 150.519 60.9504C150.952 61.5079 151.549 61.7866 152.31 61.7866C153.075 61.7866 153.667 61.5135 154.083 60.9673C154.5 60.4154 154.709 59.627 154.709 58.602V58.1543ZM160.486 59.8438V63.2987H158.434V53.4576H162.531C163.725 53.4576 164.676 53.7589 165.386 54.3615C166.101 54.9584 166.459 55.744 166.459 56.7183C166.459 57.67 166.118 58.4246 165.437 58.9822C164.761 59.5397 163.826 59.8269 162.632 59.8438H160.486ZM160.486 58.1881H162.531C163.116 58.1881 163.575 58.0642 163.908 57.8164C164.246 57.5686 164.414 57.2082 164.414 56.7352C164.414 56.2452 164.243 55.8538 163.899 55.561C163.561 55.2625 163.108 55.1133 162.539 55.1133H160.486V58.1881ZM174.779 55.1133H170.066V63.2987H168.013V53.4576H174.779V55.1133ZM184.663 58.602C184.663 60.0887 184.254 61.2657 183.438 62.133C182.627 63.0002 181.554 63.4339 180.219 63.4339C178.89 63.4339 177.812 63.0002 176.984 62.133C176.156 61.2601 175.742 60.069 175.742 58.5598V58.1712C175.742 57.2026 175.928 56.3494 176.3 55.6117C176.677 54.8683 177.204 54.3024 177.879 53.9138C178.555 53.5196 179.329 53.3225 180.202 53.3225C181.554 53.3225 182.635 53.7646 183.446 54.6487C184.257 55.5272 184.663 56.7183 184.663 58.2219V58.602ZM182.618 58.1543C182.618 57.1238 182.407 56.3382 181.985 55.7975C181.562 55.2569 180.968 54.9866 180.202 54.9866C179.448 54.9866 178.856 55.2569 178.428 55.7975C178 56.3382 177.786 57.1238 177.786 58.1543V58.602C177.786 59.6044 178 60.3872 178.428 60.9504C178.862 61.5079 179.459 61.7866 180.219 61.7866C180.985 61.7866 181.576 61.5135 181.993 60.9673C182.41 60.4154 182.618 59.627 182.618 58.602V58.1543ZM186.344 63.2987V53.4576H189.984C191.235 53.4576 192.189 53.6913 192.848 54.1588C193.512 54.6205 193.845 55.2907 193.845 56.1692C193.845 56.6141 193.718 57.0224 193.465 57.3941C193.217 57.7601 192.837 58.0417 192.324 58.2388C192.865 58.3683 193.293 58.6358 193.608 59.0413C193.924 59.4411 194.081 59.9198 194.081 60.4773C194.081 61.3953 193.763 62.0964 193.127 62.5807C192.49 63.0594 191.55 63.2987 190.305 63.2987H186.344ZM188.396 59.0159V61.6599H190.322C190.897 61.6599 191.325 61.5417 191.606 61.3052C191.888 61.063 192.029 60.7589 192.029 60.3928C192.029 59.5031 191.522 59.0441 190.508 59.0159H188.396ZM188.396 57.5799H190.187C190.7 57.5686 191.094 57.4616 191.37 57.2589C191.651 57.0562 191.792 56.7605 191.792 56.3719C191.792 55.9271 191.646 55.6061 191.353 55.409C191.066 55.2119 190.638 55.1133 190.069 55.1133H188.396V57.5799ZM204.176 53.4576V63.2987H202.123V55.1133H199.183L199.057 58.0952C198.989 59.4299 198.831 60.4604 198.584 61.1869C198.341 61.9134 197.981 62.4455 197.502 62.7834C197.024 63.1213 196.39 63.2931 195.602 63.2987H195.112L195.12 61.567L195.45 61.5332C196.002 61.4713 196.382 61.215 196.59 60.7645C196.798 60.314 196.936 59.4411 197.004 58.1459L197.19 53.4576H204.176ZM212.707 53.4576H214.76V63.2987H212.707V56.5156L208.23 63.2987H206.178V53.4576H208.23V60.2155L212.707 53.4576Z" fill="url(#paint0_linear)"/>
<path d="M18.04 41H2.05V11.726H7.954V36.162H14.842V11.726H20.746V36.162H23.493V46.781H18.04V41ZM30.7913 16.564H24.3953V11.726H43.0913V16.564H36.6953V41H30.7913V16.564ZM55.0005 41.451C52.7865 41.451 51.0235 41.0957 49.7115 40.385C48.3995 39.647 47.3882 38.622 46.6775 37.31C45.9942 35.9707 45.5432 34.3853 45.3245 32.554C45.1332 30.6953 45.0375 28.6317 45.0375 26.363C45.0375 24.149 45.1332 22.1127 45.3245 20.254C45.5432 18.368 45.9942 16.7553 46.6775 15.416C47.3882 14.0767 48.3995 13.038 49.7115 12.3C51.0235 11.5347 52.7865 11.152 55.0005 11.152C57.2145 11.152 58.9775 11.5347 60.2895 12.3C61.6015 13.038 62.5992 14.0767 63.2825 15.416C63.9932 16.7553 64.4442 18.368 64.6355 20.254C64.8542 22.1127 64.9635 24.149 64.9635 26.363C64.9635 28.6317 64.8542 30.6953 64.6355 32.554C64.4442 34.3853 63.9932 35.9707 63.2825 37.31C62.5992 38.622 61.6015 39.647 60.2895 40.385C58.9775 41.0957 57.2145 41.451 55.0005 41.451ZM55.0005 37.228C55.8752 37.228 56.5722 37.0367 57.0915 36.654C57.6382 36.244 58.0482 35.6153 58.3215 34.768C58.6222 33.8933 58.8135 32.7727 58.8955 31.406C59.0049 30.012 59.0595 28.331 59.0595 26.363C59.0595 24.395 59.0049 22.7277 58.8955 21.361C58.8135 19.9943 58.6222 18.8737 58.3215 17.999C58.0482 17.1243 57.6382 16.4957 57.0915 16.113C56.5722 15.703 55.8752 15.498 55.0005 15.498C54.1259 15.498 53.4152 15.703 52.8685 16.113C52.3492 16.4957 51.9392 17.1243 51.6385 17.999C51.3652 18.8737 51.1739 19.9943 51.0645 21.361C50.9825 22.7277 50.9415 24.395 50.9415 26.363C50.9415 28.331 50.9825 30.012 51.0645 31.406C51.1739 32.7727 51.3652 33.8933 51.6385 34.768C51.9392 35.6153 52.3492 36.244 52.8685 36.654C53.4152 37.0367 54.1259 37.228 55.0005 37.228ZM88.9854 37.597C85.3227 37.597 82.48 36.5993 80.4574 34.604C78.462 32.5813 77.4644 29.766 77.4644 26.158C77.4644 24.436 77.724 22.8917 78.2434 21.525C78.7627 20.131 79.5144 18.942 80.4984 17.958C81.4824 16.974 82.685 16.2223 84.1064 15.703C85.555 15.1563 87.1814 14.883 88.9854 14.883V11.152H94.8894V14.883C96.6934 14.883 98.306 15.1563 99.7274 15.703C101.176 16.2223 102.392 16.974 103.376 17.958C104.36 18.9147 105.112 20.09 105.631 21.484C106.151 22.878 106.41 24.436 106.41 26.158C106.41 29.766 105.399 32.5813 103.376 34.604C101.381 36.5993 98.552 37.597 94.8894 37.597V41.451H88.9854V37.597ZM89.1904 19.434C88.2064 19.434 87.359 19.598 86.6484 19.926C85.9377 20.254 85.35 20.7187 84.8854 21.32C84.4207 21.894 84.079 22.591 83.8604 23.411C83.6417 24.231 83.5324 25.1467 83.5324 26.158C83.5324 28.208 83.9834 29.8753 84.8854 31.16C85.7874 32.4173 87.2224 33.046 89.1904 33.046V19.434ZM94.6844 33.046C96.6524 33.046 98.0874 32.4173 98.9894 31.16C99.8914 29.8753 100.342 28.208 100.342 26.158C100.342 25.1467 100.233 24.231 100.014 23.411C99.7957 22.591 99.454 21.894 98.9894 21.32C98.5247 20.7187 97.937 20.254 97.2264 19.926C96.5157 19.598 95.6684 19.434 94.6844 19.434V33.046ZM109.675 11.726H126.034V16.564H115.579V23.452H125.419V28.29H115.579V36.162H126.444V41H109.675V11.726ZM129.414 11.726H135.318V22.919H142.206V11.726H148.11V41H142.206V28.003H135.318V41H129.414V11.726ZM152.196 11.726H157.813V30.504L164.988 11.726H171.343V41H165.726V22.263L158.551 41H152.196V11.726ZM175.459 11.726H181.363V23.452H181.445L188.907 11.726H195.303L187.349 24.272L196.205 41H189.563L183.536 28.987L181.363 32.308V41H175.459V11.726ZM206.829 41.451C204.615 41.451 202.852 41.0957 201.54 40.385C200.228 39.647 199.216 38.622 198.506 37.31C197.822 35.9707 197.371 34.3853 197.153 32.554C196.961 30.6953 196.866 28.6317 196.866 26.363C196.866 24.149 196.961 22.1127 197.153 20.254C197.371 18.368 197.822 16.7553 198.506 15.416C199.216 14.0767 200.228 13.038 201.54 12.3C202.852 11.5347 204.615 11.152 206.829 11.152C208.933 11.152 210.587 11.4937 211.79 12.177C213.02 12.8603 213.935 13.735 214.537 14.801C215.138 15.8397 215.507 16.974 215.644 18.204C215.808 19.4067 215.89 20.541 215.89 21.607H209.986C209.986 19.475 209.726 17.9307 209.207 16.974C208.715 15.99 207.799 15.498 206.46 15.498C205.722 15.498 205.107 15.703 204.615 16.113C204.15 16.4957 203.781 17.138 203.508 18.04C203.234 18.9147 203.043 20.0763 202.934 21.525C202.824 22.9463 202.77 24.6957 202.77 26.773C202.77 28.987 202.838 30.7773 202.975 32.144C203.139 33.5107 203.371 34.5767 203.672 35.342C204 36.08 204.396 36.5857 204.861 36.859C205.353 37.105 205.913 37.228 206.542 37.228C207.061 37.228 207.539 37.146 207.977 36.982C208.441 36.7907 208.838 36.4353 209.166 35.916C209.494 35.3693 209.753 34.6177 209.945 33.661C210.136 32.677 210.232 31.3923 210.232 29.807H216.136C216.136 31.4197 216.013 32.9367 215.767 34.358C215.521 35.752 215.056 36.982 214.373 38.048C213.717 39.0867 212.774 39.9203 211.544 40.549C210.341 41.1503 208.769 41.451 206.829 41.451Z" fill="url(#paint1_linear)"/>
</g>
<defs>
<filter id="filter0_i" x="0.492188" y="11.152" width="215.643" height="55.9934" filterUnits="userSpaceOnUse" color-interpolation-filters="sRGB">
<feFlood flood-opacity="0" result="BackgroundImageFix"/>
<feBlend mode="normal" in="SourceGraphic" in2="BackgroundImageFix" result="shape"/>
<feColorMatrix in="SourceAlpha" type="matrix" values="0 0 0 0 0 0 0 0 0 0 0 0 0 0 0 0 0 0 127 0" result="hardAlpha"/>
<feOffset dx="-1" dy="2"/>
<feGaussianBlur stdDeviation="0.5"/>
<feComposite in2="hardAlpha" operator="arithmetic" k2="-1" k3="1"/>
<feColorMatrix type="matrix" values="0 0 0 0 0 0 0 0 0 0 0 0 0 0 0 0 0 0 0.53 0"/>
<feBlend mode="normal" in2="shape" result="effect1_innerShadow"/>
</filter>
<linearGradient id="paint0_linear" x1="109.708" y1="48.2987" x2="109.708" y2="66.7013" gradientUnits="userSpaceOnUse">
<stop stop-color="#3C7BEA"/>
<stop offset="1" stop-color="#58BAF3"/>
</linearGradient>
<linearGradient id="paint1_linear" x1="109" y1="0" x2="109" y2="40" gradientUnits="userSpaceOnUse">
<stop stop-color="#3C7BEA"/>
<stop offset="1" stop-color="#58BAF3"/>
</linearGradient>
</defs>
</svg>
