<svg width="152" height="38" viewBox="0 0 152 38" fill="none" xmlns="http://www.w3.org/2000/svg">
<g filter="url(#filter0_i)">
<path d="M4.93682 33.6165H2.04199L1.47144 35.112H0L2.82876 28.1152H4.16807L6.98481 35.112H5.50737L4.93682 33.6165ZM2.46841 32.5055H4.5104L3.4894 29.8509L2.46841 32.5055Z" fill="#595A6C"/>
<path d="M7.75356 35.112V28.1152H10.3421C11.231 28.1152 11.9096 28.2813 12.3781 28.6137C12.8505 28.942 13.0868 29.4184 13.0868 30.0431C13.0868 30.3594 12.9967 30.6496 12.8165 30.9139C12.6403 31.1742 12.3701 31.3744 12.0057 31.5145C12.3901 31.6066 12.6944 31.7968 12.9186 32.085C13.1428 32.3693 13.2549 32.7097 13.2549 33.106C13.2549 33.7587 13.0287 34.2572 12.5763 34.6015C12.1238 34.9418 11.4552 35.112 10.5703 35.112H7.75356ZM9.21299 32.067V33.9469H10.5823C10.9907 33.9469 11.295 33.8628 11.4952 33.6946C11.6954 33.5224 11.7955 33.3062 11.7955 33.046C11.7955 32.4134 11.4352 32.0871 10.7145 32.067H9.21299ZM9.21299 31.046H10.4862C10.8506 31.038 11.1309 30.962 11.3271 30.8178C11.5272 30.6737 11.6273 30.4635 11.6273 30.1872C11.6273 29.8709 11.5232 29.6427 11.315 29.5025C11.1108 29.3624 10.8065 29.2923 10.4021 29.2923H9.21299V31.046Z" fill="#595A6C"/>
<path d="M20.0536 29.2923H17.7353V35.112H16.2759V29.2923H13.9876V28.1152H20.0536V29.2923Z" fill="#595A6C"/>
<path d="M27.0984 31.7727C27.0984 32.8298 26.8082 33.6666 26.2276 34.2832C25.651 34.8998 24.8883 35.2081 23.9394 35.2081C22.9944 35.2081 22.2277 34.8998 21.6391 34.2832C21.0505 33.6626 20.7563 32.8158 20.7563 31.7427V31.4664C20.7563 30.7778 20.8884 30.1712 21.1526 29.6467C21.4209 29.1182 21.7953 28.7158 22.2757 28.4395C22.7562 28.1592 23.3067 28.0191 23.9273 28.0191C24.8883 28.0191 25.657 28.3334 26.2336 28.962C26.8102 29.5866 27.0984 30.4334 27.0984 31.5025V31.7727ZM25.645 31.4544C25.645 30.7217 25.4949 30.1632 25.1946 29.7788C24.8943 29.3944 24.4719 29.2022 23.9273 29.2022C23.3908 29.2022 22.9704 29.3944 22.6661 29.7788C22.3618 30.1632 22.2097 30.7217 22.2097 31.4544V31.7727C22.2097 32.4854 22.3618 33.042 22.6661 33.4424C22.9744 33.8388 23.3988 34.037 23.9394 34.037C24.4839 34.037 24.9043 33.8428 25.2006 33.4544C25.4969 33.062 25.645 32.5015 25.645 31.7727V31.4544Z" fill="#595A6C"/>
<path d="M30.1915 28.1152L32.2154 33.1781L34.2214 28.1152H36.1313V35.112H34.6778V33.2202L34.828 29.7968L32.7139 35.112H31.7049L29.5969 29.8268L29.747 33.2202V35.112H28.2936V28.1152H30.1915Z" fill="#595A6C"/>
<path d="M41.8368 33.6165H38.942L38.3714 35.112H36.9L39.7288 28.1152H41.0681L43.8848 35.112H42.4074L41.8368 33.6165ZM39.3684 32.5055H41.4104L40.3894 29.8509L39.3684 32.5055Z" fill="#595A6C"/>
<path d="M49.8426 29.2923H47.5244V35.112H46.0649V29.2923H43.7767V28.1152H49.8426V29.2923Z" fill="#595A6C"/>
<path d="M55.4221 28.1152H56.8815V35.112H55.4221V30.2893L52.239 35.112H50.7795V28.1152H52.239V32.9199L55.4221 28.1152Z" fill="#595A6C"/>
<path d="M62.0225 30.0971C62.0225 29.8168 61.9104 29.5986 61.6862 29.4425C61.462 29.2823 61.1356 29.2022 60.7072 29.2022C60.3429 29.2022 60.0586 29.2723 59.8544 29.4124C59.6502 29.5526 59.5481 29.7428 59.5481 29.983H58.0887C58.0887 29.3904 58.3309 28.916 58.8154 28.5596C59.3039 28.1993 59.9385 28.0191 60.7192 28.0191C61.5841 28.0191 62.2607 28.1872 62.7492 28.5236C63.2377 28.8559 63.4819 29.3224 63.4819 29.9229C63.4819 30.2873 63.3718 30.6076 63.1516 30.8839C62.9314 31.1601 62.6351 31.3764 62.2627 31.5325C62.7072 31.6766 63.0395 31.8949 63.2597 32.1871C63.4799 32.4754 63.59 32.8017 63.59 33.1661C63.59 33.8027 63.3318 34.3032 62.8153 34.6676C62.2988 35.0279 61.6001 35.2081 60.7192 35.2081C60.3469 35.2081 59.9845 35.1641 59.6322 35.076C59.2838 34.9839 58.9835 34.8437 58.7313 34.6556C58.2348 34.2912 57.9866 33.7907 57.9866 33.1541H59.446C59.49 33.7427 59.9165 34.037 60.7252 34.037C61.2017 34.037 61.5561 33.9509 61.7883 33.7787C62.0205 33.6025 62.1366 33.3703 62.1366 33.082C62.1366 32.4174 61.6882 32.079 60.7913 32.067H59.9024V31.01H60.8273C61.6241 30.994 62.0225 30.6897 62.0225 30.0971Z" fill="#595A6C"/>
<path d="M69.1515 33.6165H66.2566L65.6861 35.112H64.2146L67.0434 28.1152H68.3827L71.1995 35.112H69.722L69.1515 33.6165ZM66.6831 32.5055H68.725L67.704 29.8509L66.6831 32.5055Z" fill="#595A6C"/>
<path d="M77.9981 33.9409H79.1632L79.0431 37.136H77.7158V35.112H71.9682V28.1152H73.4276V33.9409H76.5327V28.1152H77.9981V33.9409Z" fill="#595A6C"/>
<path d="M84.8628 28.1152H86.3222V35.112H84.8628V30.2893L81.6797 35.112H80.2203V28.1152H81.6797V32.9199L84.8628 28.1152Z" fill="#595A6C"/>
<path d="M87.4333 35.112L89.1029 31.9769C88.2461 31.6326 87.8177 31.042 87.8177 30.2052C87.8177 29.5526 88.0579 29.0421 88.5384 28.6737C89.0188 28.3014 89.6815 28.1152 90.5263 28.1152H93.289V35.112H91.8296V32.4454H90.3822L89.0008 35.112H87.4333ZM89.2771 30.2953C89.2771 30.5916 89.3732 30.8298 89.5654 31.01C89.7616 31.1862 90.0739 31.2743 90.5023 31.2743H91.8296V29.2923H90.5023C90.1139 29.2923 89.8116 29.3804 89.5954 29.5566C89.3832 29.7288 89.2771 29.975 89.2771 30.2953Z" fill="#595A6C"/>
<path d="M103.343 29.2923H101.025V35.112H99.5651V29.2923H97.2769V28.1152H103.343V29.2923Z" fill="#595A6C"/>
<path d="M110.388 31.7727C110.388 32.8298 110.097 33.6666 109.517 34.2832C108.94 34.8998 108.178 35.2081 107.229 35.2081C106.284 35.2081 105.517 34.8998 104.928 34.2832C104.34 33.6626 104.046 32.8158 104.046 31.7427V31.4664C104.046 30.7778 104.178 30.1712 104.442 29.6467C104.71 29.1182 105.085 28.7158 105.565 28.4395C106.045 28.1592 106.596 28.0191 107.217 28.0191C108.178 28.0191 108.946 28.3334 109.523 28.962C110.099 29.5866 110.388 30.4334 110.388 31.5025V31.7727ZM108.934 31.4544C108.934 30.7217 108.784 30.1632 108.484 29.7788C108.184 29.3944 107.761 29.2022 107.217 29.2022C106.68 29.2022 106.26 29.3944 105.955 29.7788C105.651 30.1632 105.499 30.7217 105.499 31.4544V31.7727C105.499 32.4854 105.651 33.042 105.955 33.4424C106.264 33.8388 106.688 34.037 107.229 34.037C107.773 34.037 108.194 33.8428 108.49 33.4544C108.786 33.062 108.934 32.5015 108.934 31.7727V31.4544Z" fill="#595A6C"/>
<path d="M113.042 32.6556V35.112H111.583V28.1152H114.496C115.345 28.1152 116.021 28.3294 116.526 28.7578C117.034 29.1822 117.288 29.7408 117.288 30.4334C117.288 31.1101 117.046 31.6466 116.562 32.043C116.081 32.4394 115.417 32.6436 114.568 32.6556H113.042ZM113.042 31.4785H114.496C114.912 31.4785 115.238 31.3904 115.475 31.2142C115.715 31.038 115.835 30.7818 115.835 30.4454C115.835 30.0971 115.713 29.8188 115.469 29.6106C115.228 29.3984 114.906 29.2923 114.502 29.2923H113.042V31.4785Z" fill="#595A6C"/>
<path d="M123.204 29.2923H119.853V35.112H118.394V28.1152H123.204V29.2923Z" fill="#595A6C"/>
<path d="M130.231 31.7727C130.231 32.8298 129.941 33.6666 129.36 34.2832C128.784 34.8998 128.021 35.2081 127.072 35.2081C126.127 35.2081 125.36 34.8998 124.772 34.2832C124.183 33.6626 123.889 32.8158 123.889 31.7427V31.4664C123.889 30.7778 124.021 30.1712 124.285 29.6467C124.554 29.1182 124.928 28.7158 125.408 28.4395C125.889 28.1592 126.439 28.0191 127.06 28.0191C128.021 28.0191 128.79 28.3334 129.366 28.962C129.943 29.5866 130.231 30.4334 130.231 31.5025V31.7727ZM128.778 31.4544C128.778 30.7217 128.627 30.1632 128.327 29.7788C128.027 29.3944 127.604 29.2022 127.06 29.2022C126.523 29.2022 126.103 29.3944 125.799 29.7788C125.494 30.1632 125.342 30.7217 125.342 31.4544V31.7727C125.342 32.4854 125.494 33.042 125.799 33.4424C126.107 33.8388 126.531 34.037 127.072 34.037C127.617 34.037 128.037 33.8428 128.333 33.4544C128.63 33.062 128.778 32.5015 128.778 31.7727V31.4544Z" fill="#595A6C"/>
<path d="M131.426 35.112V28.1152H134.015C134.904 28.1152 135.582 28.2813 136.051 28.6137C136.523 28.942 136.759 29.4184 136.759 30.0431C136.759 30.3594 136.669 30.6496 136.489 30.9139C136.313 31.1742 136.043 31.3744 135.678 31.5145C136.063 31.6066 136.367 31.7968 136.591 32.085C136.815 32.3693 136.928 32.7097 136.928 33.106C136.928 33.7587 136.701 34.2572 136.249 34.6015C135.796 34.9418 135.128 35.112 134.243 35.112H131.426ZM132.886 32.067V33.9469H134.255C134.663 33.9469 134.968 33.8628 135.168 33.6946C135.368 33.5224 135.468 33.3062 135.468 33.046C135.468 32.4134 135.108 32.0871 134.387 32.067H132.886ZM132.886 31.046H134.159C134.523 31.038 134.804 30.962 135 30.8178C135.2 30.6737 135.3 30.4635 135.3 30.1872C135.3 29.8709 135.196 29.6427 134.988 29.5025C134.784 29.3624 134.479 29.2923 134.075 29.2923H132.886V31.046Z" fill="#595A6C"/>
<path d="M144.105 28.1152V35.112H142.645V29.2923H140.555L140.465 31.4124C140.417 32.3613 140.305 33.094 140.129 33.6105C139.957 34.127 139.7 34.5054 139.36 34.7456C139.02 34.9859 138.569 35.108 138.009 35.112H137.66L137.666 33.8808L137.901 33.8568C138.293 33.8127 138.563 33.6306 138.711 33.3102C138.859 32.9899 138.958 32.3693 139.006 31.4484L139.138 28.1152H144.105Z" fill="#595A6C"/>
<path d="M150.171 28.1152H151.63V35.112H150.171V30.2893L146.987 35.112H145.528V28.1152H146.987V32.9199L150.171 28.1152Z" fill="#595A6C"/>
<path d="M11.7059 21.112H0.395947V0.406H4.57195V17.69H9.44395V0.406H13.6199V17.69H15.5629V25.201H11.7059V21.112Z" fill="#595A6C"/>
<path d="M20.7252 3.828H16.2012V0.406H29.4252V3.828H24.9012V21.112H20.7252V3.828Z" fill="#595A6C"/>
<path d="M37.8488 21.431C36.2828 21.431 35.0358 21.1797 34.1078 20.677C33.1798 20.155 32.4644 19.43 31.9618 18.502C31.4784 17.5547 31.1594 16.4333 31.0048 15.138C30.8694 13.8233 30.8018 12.3637 30.8018 10.759C30.8018 9.193 30.8694 7.75267 31.0048 6.438C31.1594 5.104 31.4784 3.96333 31.9618 3.016C32.4644 2.06867 33.1798 1.334 34.1078 0.812C35.0358 0.270667 36.2828 0 37.8488 0C39.4148 0 40.6618 0.270667 41.5898 0.812C42.5178 1.334 43.2234 2.06867 43.7068 3.016C44.2094 3.96333 44.5284 5.104 44.6638 6.438C44.8184 7.75267 44.8958 9.193 44.8958 10.759C44.8958 12.3637 44.8184 13.8233 44.6638 15.138C44.5284 16.4333 44.2094 17.5547 43.7068 18.502C43.2234 19.43 42.5178 20.155 41.5898 20.677C40.6618 21.1797 39.4148 21.431 37.8488 21.431ZM37.8488 18.444C38.4674 18.444 38.9604 18.3087 39.3278 18.038C39.7144 17.748 40.0044 17.3033 40.1978 16.704C40.4104 16.0853 40.5458 15.2927 40.6038 14.326C40.6811 13.34 40.7198 12.151 40.7198 10.759C40.7198 9.367 40.6811 8.18767 40.6038 7.221C40.5458 6.25433 40.4104 5.46167 40.1978 4.843C40.0044 4.22433 39.7144 3.77967 39.3278 3.509C38.9604 3.219 38.4674 3.074 37.8488 3.074C37.2301 3.074 36.7274 3.219 36.3408 3.509C35.9734 3.77967 35.6834 4.22433 35.4708 4.843C35.2774 5.46167 35.1421 6.25433 35.0648 7.221C35.0068 8.18767 34.9778 9.367 34.9778 10.759C34.9778 12.151 35.0068 13.34 35.0648 14.326C35.1421 15.2927 35.2774 16.0853 35.4708 16.704C35.6834 17.3033 35.9734 17.748 36.3408 18.038C36.7274 18.3087 37.2301 18.444 37.8488 18.444Z" fill="#595A6C"/>
<path d="M61.8868 18.705C59.2962 18.705 57.2855 17.9993 55.8548 16.588C54.4435 15.1573 53.7378 13.166 53.7378 10.614C53.7378 9.396 53.9215 8.30367 54.2888 7.337C54.6562 6.351 55.1878 5.51 55.8838 4.814C56.5798 4.118 57.4305 3.58633 58.4358 3.219C59.4605 2.83233 60.6108 2.639 61.8868 2.639V0H66.0628V2.639C67.3388 2.639 68.4795 2.83233 69.4848 3.219C70.5095 3.58633 71.3698 4.118 72.0658 4.814C72.7618 5.49067 73.2935 6.322 73.6608 7.308C74.0282 8.294 74.2118 9.396 74.2118 10.614C74.2118 13.166 73.4965 15.1573 72.0658 16.588C70.6545 17.9993 68.6535 18.705 66.0628 18.705V21.431H61.8868V18.705ZM62.0318 5.858C61.3358 5.858 60.7365 5.974 60.2338 6.206C59.7312 6.438 59.3155 6.76667 58.9868 7.192C58.6582 7.598 58.4165 8.091 58.2618 8.671C58.1072 9.251 58.0298 9.89867 58.0298 10.614C58.0298 12.064 58.3488 13.2433 58.9868 14.152C59.6248 15.0413 60.6398 15.486 62.0318 15.486V5.858ZM65.9178 15.486C67.3098 15.486 68.3248 15.0413 68.9628 14.152C69.6008 13.2433 69.9198 12.064 69.9198 10.614C69.9198 9.89867 69.8425 9.251 69.6878 8.671C69.5331 8.091 69.2915 7.598 68.9628 7.192C68.6342 6.76667 68.2185 6.438 67.7158 6.206C67.2132 5.974 66.6138 5.858 65.9178 5.858V15.486Z" fill="#595A6C"/>
<path d="M76.521 0.406H88.0919V3.828H80.6969V8.7H87.6569V12.122H80.6969V17.69H88.382V21.112H76.521V0.406Z" fill="#595A6C"/>
<path d="M90.4829 0.406H94.6589V8.323H99.5309V0.406H103.707V21.112H99.5309V11.919H94.6589V21.112H90.4829V0.406Z" fill="#595A6C"/>
<path d="M106.597 0.406H110.57V13.688L115.645 0.406H120.14V21.112H116.167V7.859L111.092 21.112H106.597V0.406Z" fill="#595A6C"/>
<path d="M123.051 0.406H127.227V8.7H127.285L132.563 0.406H137.087L131.461 9.28L137.725 21.112H133.027L128.764 12.615L127.227 14.964V21.112H123.051V0.406Z" fill="#595A6C"/>
<path d="M145.239 21.431C143.673 21.431 142.426 21.1797 141.498 20.677C140.57 20.155 139.855 19.43 139.352 18.502C138.869 17.5547 138.55 16.4333 138.395 15.138C138.26 13.8233 138.192 12.3637 138.192 10.759C138.192 9.193 138.26 7.75267 138.395 6.438C138.55 5.104 138.869 3.96333 139.352 3.016C139.855 2.06867 140.57 1.334 141.498 0.812C142.426 0.270667 143.673 0 145.239 0C146.728 0 147.898 0.241667 148.748 0.725001C149.618 1.20833 150.266 1.827 150.691 2.581C151.117 3.31567 151.378 4.118 151.474 4.988C151.59 5.83867 151.648 6.641 151.648 7.395H147.472C147.472 5.887 147.289 4.79467 146.921 4.118C146.573 3.422 145.926 3.074 144.978 3.074C144.456 3.074 144.021 3.219 143.673 3.509C143.345 3.77967 143.084 4.234 142.89 4.872C142.697 5.49067 142.562 6.31233 142.484 7.337C142.407 8.34233 142.368 9.57967 142.368 11.049C142.368 12.615 142.417 13.8813 142.513 14.848C142.629 15.8147 142.794 16.5687 143.006 17.11C143.238 17.632 143.519 17.9897 143.847 18.183C144.195 18.357 144.592 18.444 145.036 18.444C145.404 18.444 145.742 18.386 146.051 18.27C146.38 18.1347 146.66 17.8833 146.892 17.516C147.124 17.1293 147.308 16.5977 147.443 15.921C147.579 15.225 147.646 14.3163 147.646 13.195H151.822C151.822 14.3357 151.735 15.4087 151.561 16.414C151.387 17.4 151.059 18.27 150.575 19.024C150.111 19.7587 149.444 20.3483 148.574 20.793C147.724 21.2183 146.612 21.431 145.239 21.431Z" fill="#595A6C"/>
</g>
<defs>
<filter id="filter0_i" x="-1" y="0" width="152.822" height="37.136" filterUnits="userSpaceOnUse" color-interpolation-filters="sRGB">
<feFlood flood-opacity="0" result="BackgroundImageFix"/>
<feBlend mode="normal" in="SourceGraphic" in2="BackgroundImageFix" result="shape"/>
<feColorMatrix in="SourceAlpha" type="matrix" values="0 0 0 0 0 0 0 0 0 0 0 0 0 0 0 0 0 0 127 0" result="hardAlpha"/>
<feOffset dx="-1"/>
<feGaussianBlur stdDeviation="0.5"/>
<feComposite in2="hardAlpha" operator="arithmetic" k2="-1" k3="1"/>
<feColorMatrix type="matrix" values="0 0 0 0 0 0 0 0 0 0 0 0 0 0 0 0 0 0 0.53 0"/>
<feBlend mode="normal" in2="shape" result="effect1_innerShadow"/>
</filter>
</defs>
</svg>
