<svg width="15" height="15" viewBox="0 0 15 15" fill="none" xmlns="http://www.w3.org/2000/svg">
<path d="M14.7747 13.1162L10.7935 9.13497C11.5647 8.18241 12.029 6.97199 12.029 5.65368C12.029 2.59821 9.54287 0.112061 6.4874 0.112061C3.43192 0.112061 0.945801 2.59818 0.945801 5.65366C0.945801 8.70913 3.43195 11.1953 6.48742 11.1953C7.80573 11.1953 9.01615 10.731 9.96871 9.95979L13.9499 13.941C14.0637 14.0548 14.213 14.1119 14.3623 14.1119C14.5117 14.1119 14.661 14.0548 14.7748 13.941C15.0028 13.7129 15.0028 13.3443 14.7747 13.1162ZM6.48742 10.0286C4.07477 10.0286 2.11247 8.06631 2.11247 5.65366C2.11247 3.241 4.07477 1.2787 6.48742 1.2787C8.90007 1.2787 10.8624 3.241 10.8624 5.65366C10.8624 8.06631 8.90005 10.0286 6.48742 10.0286Z" fill="#7575A9"/>
</svg>