<svg width="80" height="80" viewBox="0 0 80 80" fill="none" xmlns="http://www.w3.org/2000/svg">
<g filter="url(#filter0_i)">
<path fill-rule="evenodd" clip-rule="evenodd" d="M76.875 60.5811V27.5C76.875 24.9152 74.7723 22.8125 72.1875 22.8125H61.875V15.625H68.125C70.7098 15.625 72.8125 13.5223 72.8125 10.9375V4.6875C72.8125 2.10266 70.7098 0 68.125 0H43.125C40.5402 0 38.4375 2.10266 38.4375 4.6875V10.9375C38.4375 13.5223 40.5402 15.625 43.125 15.625H49.375V22.8125H33.75V14.0625C33.75 13.1995 33.0505 12.5 32.1875 12.5H16.5625C15.6995 12.5 15 13.1995 15 14.0625V22.8125H7.8125C5.22766 22.8125 3.125 24.9152 3.125 27.5V60.5811C1.30615 61.2262 0 62.9633 0 65V75.3125C0 77.8973 2.10266 80 4.6875 80H75.3125C77.8973 80 80 77.8973 80 75.3125V65C80 62.9633 78.6938 61.2262 76.875 60.5811ZM52.5 15.625H58.75V22.8125H52.5V15.625ZM41.5625 10.9375V4.6875C41.5625 3.82568 42.2632 3.125 43.125 3.125H68.125C68.9868 3.125 69.6875 3.82568 69.6875 4.6875V10.9375C69.6875 11.7993 68.9868 12.5 68.125 12.5H43.125C42.2632 12.5 41.5625 11.7993 41.5625 10.9375ZM18.125 15.625H30.625V44.6875H18.125V15.625ZM6.25 27.5C6.25 26.6382 6.95068 25.9375 7.8125 25.9375H15V44.6875C14.137 44.6875 13.4375 45.387 13.4375 46.25C13.4375 47.113 14.137 47.8125 15 47.8125H33.75C34.613 47.8125 35.3125 47.113 35.3125 46.25C35.3125 45.387 34.613 44.6875 33.75 44.6875V25.9375H72.1875C73.0493 25.9375 73.75 26.6382 73.75 27.5V60.3125H6.25V27.5ZM29.0625 63.4375H50.9375V67.5C50.9375 68.3618 50.2368 69.0625 49.375 69.0625H30.625C29.7632 69.0625 29.0625 68.3618 29.0625 67.5V63.4375ZM76.875 75.3125C76.875 76.1743 76.1743 76.875 75.3125 76.875H4.6875C3.82568 76.875 3.125 76.1743 3.125 75.3125V65C3.125 64.1382 3.82568 63.4375 4.6875 63.4375H25.9375V67.5C25.9375 70.0848 28.0402 72.1875 30.625 72.1875H49.375C51.9598 72.1875 54.0625 70.0848 54.0625 67.5V63.4375H75.3125C76.1743 63.4375 76.875 64.1382 76.875 65V75.3125ZM46.25 6.25C45.3876 6.25 44.6875 6.95007 44.6875 7.8125C44.6875 8.67493 45.3876 9.375 46.25 9.375C47.1124 9.375 47.8125 8.67493 47.8125 7.8125C47.8125 6.95007 47.1124 6.25 46.25 6.25ZM65 44.6875H43.125C42.262 44.6875 41.5625 43.988 41.5625 43.125V30.625C41.5625 29.762 42.262 29.0625 43.125 29.0625H65C65.863 29.0625 66.5625 29.762 66.5625 30.625V43.125C66.5625 43.988 65.863 44.6875 65 44.6875ZM63.4375 32.1875H44.6875V41.5625H63.4375V32.1875ZM61.875 47.8125C61.012 47.8125 60.3125 48.512 60.3125 49.375C60.3125 50.238 61.012 50.9375 61.875 50.9375H65C65.863 50.9375 66.5625 50.238 66.5625 49.375C66.5625 48.512 65.863 47.8125 65 47.8125H61.875ZM52.5 47.8125H55.625C56.488 47.8125 57.1875 48.512 57.1875 49.375C57.1875 50.238 56.488 50.9375 55.625 50.9375H52.5C51.637 50.9375 50.9375 50.238 50.9375 49.375C50.9375 48.512 51.637 47.8125 52.5 47.8125ZM46.25 50.9375C47.113 50.9375 47.8125 50.238 47.8125 49.375C47.8125 48.512 47.113 47.8125 46.25 47.8125H43.125C42.262 47.8125 41.5625 48.512 41.5625 49.375C41.5625 50.238 42.262 50.9375 43.125 50.9375H46.25ZM60.3125 55.625C60.3125 54.762 61.012 54.0625 61.875 54.0625H65C65.863 54.0625 66.5625 54.762 66.5625 55.625C66.5625 56.488 65.863 57.1875 65 57.1875H61.875C61.012 57.1875 60.3125 56.488 60.3125 55.625ZM55.625 54.0625H52.5C51.637 54.0625 50.9375 54.762 50.9375 55.625C50.9375 56.488 51.637 57.1875 52.5 57.1875H55.625C56.488 57.1875 57.1875 56.488 57.1875 55.625C57.1875 54.762 56.488 54.0625 55.625 54.0625ZM47.8125 55.625C47.8125 56.488 47.113 57.1875 46.25 57.1875H43.125C42.262 57.1875 41.5625 56.488 41.5625 55.625C41.5625 54.762 42.262 54.0625 43.125 54.0625H46.25C47.113 54.0625 47.8125 54.762 47.8125 55.625ZM35.3125 52.5C35.3125 51.637 34.613 50.9375 33.75 50.9375H15C14.137 50.9375 13.4375 51.637 13.4375 52.5C13.4375 53.363 14.137 54.0625 15 54.0625H33.75C34.613 54.0625 35.3125 53.363 35.3125 52.5ZM65 9.375H52.5C51.637 9.375 50.9375 8.67554 50.9375 7.8125C50.9375 6.94946 51.637 6.25 52.5 6.25H65C65.863 6.25 66.5625 6.94946 66.5625 7.8125C66.5625 8.67554 65.863 9.375 65 9.375Z" fill="#595A6C"/>
</g>
<defs>
<filter id="filter0_i" x="-1" y="0" width="81" height="81" filterUnits="userSpaceOnUse" color-interpolation-filters="sRGB">
<feFlood flood-opacity="0" result="BackgroundImageFix"/>
<feBlend mode="normal" in="SourceGraphic" in2="BackgroundImageFix" result="shape"/>
<feColorMatrix in="SourceAlpha" type="matrix" values="0 0 0 0 0 0 0 0 0 0 0 0 0 0 0 0 0 0 127 0" result="hardAlpha"/>
<feOffset dx="-1" dy="3"/>
<feGaussianBlur stdDeviation="0.5"/>
<feComposite in2="hardAlpha" operator="arithmetic" k2="-1" k3="1"/>
<feColorMatrix type="matrix" values="0 0 0 0 0 0 0 0 0 0 0 0 0 0 0 0 0 0 0.53 0"/>
<feBlend mode="normal" in2="shape" result="effect1_innerShadow"/>
</filter>
</defs>
</svg>
