<svg width="80" height="80" viewBox="0 0 80 80" fill="none" xmlns="http://www.w3.org/2000/svg">
<g filter="url(#filter0_i)">
<path fill-rule="evenodd" clip-rule="evenodd" d="M55.6414 5.47892C59.9458 7.28283 60.5794 11.8557 60.6063 12.0675C60.6135 12.1243 60.6171 12.1813 60.6171 12.2383V21.9344C60.6171 23.0594 60.2966 24.168 59.6907 25.1404C58.0523 27.7679 57.4773 31.0109 57.4105 31.4152C56.6491 39.8159 53.2212 43.6741 50.9927 45.3207V48.5021L55.2824 50.0399C55.295 50.0444 55.3074 50.049 55.3198 50.0539L72.1657 56.1486C75.3307 57.2933 77.6384 60.0675 78.1882 63.388L79.9331 73.9244C80.1709 75.3594 79.7676 76.8191 78.8266 77.9288C77.8859 79.0385 76.5118 79.6749 75.0566 79.6749H40.051L40.0301 79.6751H40.0004L39.9998 79.675L39.9821 79.6749H4.94348C3.48879 79.6749 2.11457 79.0385 1.17347 77.929C0.232532 76.8195 -0.170907 75.3601 0.0667503 73.9245L1.8116 63.388C2.36144 60.0674 4.66926 57.2932 7.83427 56.1486L24.7145 50.0414L24.7249 50.0377L29.0083 48.5022V45.5196C22.8795 41.0244 22.6075 31.9404 22.5988 31.5465L22.5985 31.5307L22.5985 31.5165V29.38C22.4873 27.5235 21.7902 26.294 21.2237 25.5885C20.0752 24.1585 19.4426 22.3487 19.4426 20.4927V13.3691C19.4426 5.9972 25.4399 0 32.8115 0H50.9658C51.0525 0 51.1388 0.00828128 51.2238 0.0248438C53.2058 0.410157 54.5581 1.28969 55.2435 2.63938C55.7533 3.6436 55.7664 4.67579 55.6414 5.47892ZM36.1426 68.4473L36.9899 63.1063L36.6949 62.6826L34.5664 65.5813L36.1426 68.4473ZM45.4337 65.5815L43.8812 68.4046L43.0406 63.1065L43.321 62.7039L45.4337 65.5815ZM31.78 66.1288L34.8952 71.7926L26.0778 63.7265L27.4964 61.0182C27.7143 60.6022 27.7007 60.103 27.4609 59.6993C27.2209 59.2957 26.7887 59.0455 26.3192 59.0382L22.8606 58.9849L25.2335 54.2262L31.7717 66.1138L31.7799 66.1288L31.78 66.1288ZM45.1074 71.79L53.9221 63.7264L52.5036 61.0182C52.2858 60.6021 52.2992 60.103 52.5392 59.6992C52.7791 59.2955 53.2114 59.0455 53.681 59.0381L57.1393 58.9849L54.7667 54.2269L48.2381 66.0969L48.2284 66.1154L48.2209 66.1293L45.1074 71.79ZM35.8123 59.3133L38.0732 56.234L30.1762 50.957L27.124 52.0511L33.1287 62.9685L35.6153 59.5818L35.6236 59.5701L35.634 59.5558L35.801 59.3284L35.8123 59.3133ZM48.2874 48.7304L40.0003 54.268L31.7134 48.7303V47.5001C33.1943 48.5763 35.187 49.8314 37.0991 50.4231C37.7925 50.6377 38.4752 50.7651 39.1191 50.7651H39.1349C39.2899 50.7822 39.5666 50.805 39.9419 50.805C40.5491 50.805 41.4146 50.7452 42.4417 50.5054C42.9655 50.3831 43.5313 50.214 44.1263 49.982C45.4193 49.478 46.8503 48.6775 48.2877 47.4165V48.7302L48.2874 48.7304ZM43.9259 58.9563L44.3751 59.5682L44.3818 59.5772L44.3823 59.5778L46.8717 62.9682L52.8763 52.0511L49.8249 50.9571L41.9274 56.2344L43.9259 58.9563ZM44.6536 13.5522C43.9606 13.3087 43.2146 13.2664 42.5042 13.4243C42.405 13.4463 42.3066 13.4722 42.209 13.5021C42.1268 13.5272 42.0453 13.5551 41.9646 13.5858C40.6751 14.0757 38.9035 14.7347 37.7869 15.0929L37.7864 15.093C37.6241 15.145 37.4599 15.1907 37.2941 15.2298C36.7968 15.3473 36.2852 15.4066 35.7672 15.4066H29.895C29.5445 15.4715 28.096 15.8069 26.8733 17.0785C26.855 17.0976 26.8367 17.1169 26.8184 17.1364C26.1837 17.8156 25.6157 18.7531 25.3036 20.0438V31.497C25.3153 31.8407 25.6633 40.0784 30.9818 43.5986C31.0199 43.6239 31.0522 43.6468 31.0847 43.67L31.1144 43.6909L31.1175 43.6929C31.5472 43.9829 31.9775 44.297 32.3972 44.6265C35.1411 46.7815 37.7348 48.0961 39.1734 48.0592C39.2445 48.0569 39.3162 48.061 39.3872 48.0705L39.4112 48.0739C39.5802 48.0976 43.0273 48.5276 46.6537 45.2492C47.3215 44.6456 48.0681 44.0584 48.8726 43.5042L48.9476 43.4514C48.9982 43.4157 49.0488 43.3801 49.1001 43.3456C50.5439 42.3759 53.9756 39.2536 54.7135 31.2003V20.111C54.6439 19.6776 54.083 16.9185 50.9402 15.7591L44.6536 13.5522ZM57.9117 21.9338C57.9117 22.5375 57.7416 23.1363 57.4193 23.6689V20.0185C57.4192 19.9697 57.4164 19.9211 57.4112 19.8724C57.39 19.676 56.8311 15.0407 51.8646 13.2163L51.8464 13.2097L45.5502 10.9994C45.1063 10.8436 44.6496 10.7366 44.1882 10.6783C44.0703 10.6634 43.952 10.6516 43.8336 10.6431C43.6742 10.6316 43.5145 10.6258 43.3548 10.6258C42.6456 10.6258 41.9368 10.7394 41.2574 10.9665C41.1724 10.9948 41.0878 11.025 41.0038 11.0569C39.3179 11.6974 37.9871 12.1799 37.1349 12.4603C37.0742 12.4802 37.0159 12.4992 36.9601 12.5171C36.92 12.5299 36.8796 12.5421 36.839 12.5537C36.494 12.6517 36.1342 12.7013 35.7676 12.7013H29.7861C29.7282 12.7013 29.67 12.705 29.6124 12.7124C29.5104 12.7256 28.3838 12.8851 27.0454 13.5956C26.975 13.633 26.904 13.6719 26.8325 13.7124C25.2123 14.6301 23.3517 16.362 22.6304 19.5947C22.6088 19.6915 22.5979 19.7902 22.5979 19.8893V22.673C22.3034 21.9924 22.1474 21.249 22.1474 20.4929V13.3694C22.1474 7.48939 26.9314 2.70548 32.8112 2.70548H50.8292C51.5752 2.86438 52.4817 3.19048 52.8256 3.85392C53.2467 4.66595 52.767 5.78408 52.7666 5.78502C52.5936 6.15299 52.5956 6.57908 52.7714 6.94549C52.9474 7.31189 53.2789 7.57971 53.6742 7.67486C57.1177 8.50377 57.82 11.8064 57.9116 12.3407V21.9338H57.9117ZM75.0568 76.9699C75.7154 76.9699 76.3376 76.6818 76.7638 76.1793C77.1899 75.6768 77.3724 75.0162 77.2649 74.3663V74.3662L75.5201 63.8297C75.1299 61.4733 73.4923 59.5046 71.2462 58.6921L57.5452 53.7353L60.5197 59.7003C60.7271 60.1164 60.7063 60.6096 60.4649 61.0069C60.2232 61.4039 59.7949 61.6494 59.33 61.6564L55.9197 61.7089L56.8022 63.3938C57.0872 63.9377 56.97 64.605 56.5169 65.0193L43.4527 76.9699H75.0568ZM4.94364 76.9699C4.28489 76.9699 3.6627 76.6818 3.23676 76.1793C2.81082 75.677 2.62832 75.0162 2.73582 74.3662L4.48067 63.8297C4.87083 61.473 6.50849 59.5046 8.75459 58.6921L22.4554 53.7353L19.481 59.7C19.2735 60.1161 19.2941 60.6093 19.5359 61.0066C19.7773 61.4038 20.2059 61.6491 20.6707 61.6561L24.081 61.7088L23.1985 63.3936C22.9137 63.9374 23.0309 64.6049 23.4837 65.0191L36.5479 76.9699H4.94364ZM38.2682 72.3126L40.0003 75.4615L41.7554 72.2701L40.2834 62.9924C40.2287 62.6471 40.3096 62.2941 40.5093 62.0075L41.6292 60.3994L40.0042 58.1863L38.3876 60.3797L39.521 62.0075C39.7207 62.2943 39.8018 62.6471 39.747 62.9924L38.2682 72.3126Z" fill="#595A6C"/>
</g>
<defs>
<filter id="filter0_i" x="-1" y="0" width="80.9999" height="80.6751" filterUnits="userSpaceOnUse" color-interpolation-filters="sRGB">
<feFlood flood-opacity="0" result="BackgroundImageFix"/>
<feBlend mode="normal" in="SourceGraphic" in2="BackgroundImageFix" result="shape"/>
<feColorMatrix in="SourceAlpha" type="matrix" values="0 0 0 0 0 0 0 0 0 0 0 0 0 0 0 0 0 0 127 0" result="hardAlpha"/>
<feOffset dx="-1" dy="3"/>
<feGaussianBlur stdDeviation="0.5"/>
<feComposite in2="hardAlpha" operator="arithmetic" k2="-1" k3="1"/>
<feColorMatrix type="matrix" values="0 0 0 0 0 0 0 0 0 0 0 0 0 0 0 0 0 0 0.53 0"/>
<feBlend mode="normal" in2="shape" result="effect1_innerShadow"/>
</filter>
</defs>
</svg>

