<svg width="96" height="80" viewBox="0 0 96 80" fill="none" xmlns="http://www.w3.org/2000/svg">
<path fill-rule="evenodd" clip-rule="evenodd" d="M90.2552 0H24.8875C24.1159 0 23.4904 0.625546 23.4904 1.39714C23.4904 2.16873 24.1159 2.79428 24.8875 2.79428H90.2552C91.5393 2.79428 92.5837 3.83878 92.5837 5.12284V49.8997H74.4405C73.6687 49.8997 73.0434 50.5252 73.0434 51.2968C73.0434 52.0684 73.6687 52.6939 74.4405 52.6939H92.5837V58.2352C92.5837 59.5192 91.5393 60.5638 90.2552 60.5638H5.12284C3.83878 60.5638 2.79428 59.5192 2.79428 58.2352V52.6939H68.852C69.6237 52.6939 70.2491 52.0684 70.2491 51.2968C70.2491 50.5252 69.6237 49.8997 68.852 49.8997H2.79428V5.12284C2.79428 3.83878 3.83878 2.79428 5.12284 2.79428H19.299C20.0706 2.79428 20.6961 2.16873 20.6961 1.39714C20.6961 0.625546 20.0706 0 19.299 0H5.12284C2.29801 0 0 2.2982 0 5.12284V58.2352C0 61.06 2.29801 63.358 5.12284 63.358H36.9223L35.5835 70.4987H30.8725C27.7055 70.4987 25.1291 73.0752 25.1291 76.2421V77.2057H18.3498C17.5782 77.2057 16.9527 77.8313 16.9527 78.6029C16.9527 79.3745 17.5782 80 18.3498 80H77.028C77.7998 80 78.4251 79.3745 78.4251 78.6029C78.4251 77.8313 77.7998 77.2057 77.028 77.2057H70.2489V76.2421C70.2489 73.0752 67.6724 70.4987 64.5055 70.4987H59.7944L58.4556 63.358H90.2552C93.08 63.358 95.378 61.06 95.378 58.2352V5.12284C95.378 2.2982 93.0802 0 90.2552 0ZM67.4548 76.2423V77.2059H27.9232V76.2423C27.9232 74.6162 29.2462 73.2932 30.8723 73.2932H64.5057C66.1318 73.2932 67.4548 74.616 67.4548 76.2423ZM38.4264 70.4989L39.7652 63.3582H55.6127L56.9517 70.4989H38.4264ZM47.689 57.9269C48.4606 57.9269 49.0862 57.3014 49.0862 56.5297C49.0862 55.7581 48.4606 55.1326 47.689 55.1326C46.9174 55.1326 46.2919 55.7581 46.2919 56.5297C46.2919 57.3014 46.9174 57.9269 47.689 57.9269ZM47.6891 6.47064C58.3027 6.47064 66.9375 15.1055 66.9375 25.7191C66.9375 36.3329 58.3025 44.9678 47.6889 44.9678C37.0753 44.9678 28.4404 36.3327 28.4404 25.7191C28.4404 15.1055 37.0755 6.47064 47.6891 6.47064ZM47.6891 9.26491C38.616 9.26491 31.2347 16.6463 31.2347 25.7191C31.2347 34.7919 38.616 42.1735 47.6889 42.1735C56.7619 42.1735 64.1432 34.7919 64.1432 25.7191C64.1432 16.6463 56.7619 9.26491 47.6891 9.26491ZM47.6888 35.2438C49.7571 35.2438 51.7245 34.5918 53.3785 33.3583C53.997 32.8968 54.1244 32.0215 53.663 31.403C53.2015 30.7845 52.3265 30.6571 51.7077 31.1184C50.5401 31.9893 49.1504 32.4496 47.6888 32.4496C44.5558 32.4496 41.9162 30.2978 41.1696 27.3945L41.9905 28.2155C42.2632 28.4882 42.6209 28.6248 42.9784 28.6248C43.3359 28.6248 43.6935 28.4884 43.9663 28.2155C44.5119 27.6699 44.5119 26.7852 43.9663 26.2396L40.6599 22.9332C40.1143 22.3876 39.2296 22.3876 38.684 22.9332L35.3776 26.2396C34.832 26.7852 34.832 27.6699 35.3776 28.2155C35.9232 28.7611 36.8079 28.7611 37.3533 28.2155L38.2931 27.2757C39.0388 31.7896 42.967 35.2438 47.6888 35.2438ZM47.6889 18.9888C46.1992 18.9888 44.7879 19.4651 43.608 20.3666C42.9949 20.8349 42.1181 20.7177 41.6497 20.1045C41.1812 19.4912 41.2988 18.6144 41.9118 18.146C43.5834 16.8692 45.5811 16.1943 47.6891 16.1943C52.4109 16.1943 56.3391 19.6486 57.0846 24.1623L58.0242 23.2227C58.5698 22.6771 59.4543 22.6771 60.0001 23.2227C60.5458 23.7683 60.5458 24.653 60.0001 25.1986L56.6938 28.505C56.4317 28.7671 56.0762 28.9143 55.7057 28.9143C55.335 28.9143 54.9797 28.7671 54.7176 28.505L51.4113 25.1986C50.8656 24.6528 50.8656 23.7683 51.4113 23.2227C51.9569 22.6771 52.8414 22.6771 53.3872 23.2227L54.2082 24.0438C53.4617 21.1406 50.8219 18.9888 47.6889 18.9888Z" fill="#595A6C"/>
</svg>
