<svg width="80" height="80" viewBox="0 0 80 80" fill="none" xmlns="http://www.w3.org/2000/svg">
<g filter="url(#filter0_i)">
<path fill-rule="evenodd" clip-rule="evenodd" d="M53.3333 0C38.6295 0 26.6666 11.963 26.6666 26.6667C26.6666 28.418 26.857 30.2148 27.233 32.0198L24.2544 33.5091C23.7758 33.7483 23.4406 34.2041 23.3544 34.733C23.2681 35.2619 23.4423 35.7991 23.8216 36.1783L25.9766 38.3333L24.3098 40H21.6666C20.7453 40 19.9998 40.7455 19.9998 41.6667V44.31L17.6431 46.6667H15C14.0787 46.6667 13.3333 47.4122 13.3333 48.3334V50.9767L10.9766 53.3333H8.33328C7.41203 53.3333 6.66656 54.0788 6.66656 55V57.6433L0.488281 63.8216C0.175781 64.1341 0 64.5572 0 65V78.3333C0 79.2545 0.745469 80 1.66672 80H15C15.4427 80 15.8659 79.8242 16.1784 79.5117L41.6667 54.0234L43.8217 56.1784C44.1994 56.5577 44.7381 56.7352 45.267 56.6456C45.7959 56.5594 46.2517 56.2241 46.4909 55.7456L47.9802 52.767C64.9381 56.302 80 43.1217 80 26.6667C80 11.963 68.0372 0 53.3333 0ZM47.4919 49.2317C46.7367 49.0397 45.9375 49.3978 45.5859 50.1009L44.5427 52.1859L42.845 50.4883C42.1939 49.8372 41.1392 49.8372 40.4883 50.4883L14.3098 76.6667H3.33328V65.6902L9.51172 59.5117C9.82422 59.1992 10 58.7761 10 58.3333V56.6666H11.6667C12.1094 56.6666 12.5327 56.4908 12.8452 56.1783L16.1784 52.845C16.4909 52.5325 16.6667 52.1094 16.6667 51.6666V50H18.3334C18.7761 50 19.1994 49.8242 19.5119 49.5117L22.8452 46.1784C23.1577 45.8659 23.3334 45.4428 23.3334 45V43.3333H25C25.4427 43.3333 25.8659 43.1575 26.1784 42.845L29.5117 39.5117C30.1628 38.8606 30.1628 37.8059 29.5117 37.155L27.8141 35.4573L29.8991 34.4141C30.6022 34.0625 30.9636 33.2683 30.7683 32.5081C30.2589 30.5289 30 28.5644 30 26.6667C30 13.8005 40.4672 3.33344 53.3333 3.33344C66.1994 3.33344 76.6666 13.8006 76.6666 26.6667C76.6667 41.4306 62.8891 53.1966 47.4919 49.2317ZM61.6667 10C57.072 10 53.3334 13.7386 53.3334 18.3333C53.3334 22.928 57.072 26.6666 61.6667 26.6666C66.2614 26.6666 70 22.9281 70 18.3333C70 13.7384 66.2614 10 61.6667 10ZM61.6667 23.3333C58.9095 23.3333 56.6667 21.0905 56.6667 18.3333C56.6667 15.5761 58.9095 13.3333 61.6667 13.3333C64.4239 13.3333 66.6667 15.5761 66.6667 18.3333C66.6667 21.0905 64.4239 23.3333 61.6667 23.3333ZM10.4883 67.155L33.8215 43.8216C34.4726 43.1706 35.5273 43.1706 36.1784 43.8217C36.8295 44.4727 36.8295 45.5274 36.1784 46.1785L12.8451 69.5117C12.5195 69.8372 12.0931 70 11.6667 70C11.2403 70 10.8137 69.8372 10.4883 69.5117C9.83716 68.8608 9.83716 67.8061 10.4883 67.155Z" fill="#595A6C"/>
</g>
<defs>
<filter id="filter0_i" x="-1" y="0" width="81" height="81" filterUnits="userSpaceOnUse" color-interpolation-filters="sRGB">
<feFlood flood-opacity="0" result="BackgroundImageFix"/>
<feBlend mode="normal" in="SourceGraphic" in2="BackgroundImageFix" result="shape"/>
<feColorMatrix in="SourceAlpha" type="matrix" values="0 0 0 0 0 0 0 0 0 0 0 0 0 0 0 0 0 0 127 0" result="hardAlpha"/>
<feOffset dx="-1" dy="3"/>
<feGaussianBlur stdDeviation="0.5"/>
<feComposite in2="hardAlpha" operator="arithmetic" k2="-1" k3="1"/>
<feColorMatrix type="matrix" values="0 0 0 0 0 0 0 0 0 0 0 0 0 0 0 0 0 0 0.53 0"/>
<feBlend mode="normal" in2="shape" result="effect1_innerShadow"/>
</filter>
</defs>
</svg>


