<svg width="80" height="80" viewBox="0 0 80 80" fill="none" xmlns="http://www.w3.org/2000/svg">
<g filter="url(#filter0_i)">
<path fill-rule="evenodd" clip-rule="evenodd" d="M10.9186 62.6715C11.8738 62.1466 12.9504 61.8671 14.0704 61.8671C15.8234 61.8671 17.4713 62.5494 18.7109 63.7891C19.9506 65.0281 20.6329 66.6766 20.6329 68.429C20.6329 70.1819 19.9506 71.8304 18.7109 73.0695C17.4713 74.3091 15.8234 74.9921 14.0704 74.9921C12.3175 74.9921 10.6696 74.3091 9.43054 73.0695C8.19092 71.8304 7.50793 70.1825 7.50793 68.4296C7.50793 67.1143 7.89246 65.8582 8.60779 64.7894C3.05176 57.7582 0 48.9874 0 40C0 29.3158 4.16077 19.2706 11.7157 11.7157C19.2706 4.16077 29.3158 0 40 0C42.6794 0 45.3583 0.266724 47.9626 0.792847C48.8086 0.964356 49.3555 1.78833 49.1846 2.63428C49.0137 3.48022 48.1885 4.0271 47.3438 3.8562C44.9426 3.37097 42.4719 3.125 40 3.125C19.6667 3.125 3.125 19.6667 3.125 40C3.125 48.2086 5.88684 56.2213 10.9186 62.6715ZM14.0704 71.8671C14.9884 71.8671 15.8521 71.5094 16.5009 70.86C17.1503 70.2106 17.5079 69.3475 17.5079 68.4296C17.5079 67.511 17.1503 66.6479 16.5009 65.9985C15.8514 65.3497 14.9884 64.9921 14.0704 64.9921C13.1525 64.9921 12.2888 65.3491 11.64 65.9985C10.9906 66.6479 10.6329 67.511 10.6329 68.4296C10.6329 69.3475 10.9906 70.2106 11.64 70.86C12.2894 71.5094 13.1525 71.8671 14.0704 71.8671ZM70.57 6.92994C72.8167 9.17665 73.0895 12.6605 71.3909 15.2088C76.9476 22.2406 79.9999 31.012 79.9999 40C79.9999 50.6842 75.8392 60.7294 68.2842 68.2843C60.7293 75.8392 50.6842 80 40 80C37.3468 80 34.6929 79.7382 32.113 79.2224C31.267 79.0527 30.7183 78.23 30.8874 77.3834C31.0571 76.5375 31.8804 75.9888 32.7264 76.1579C35.1049 76.6339 37.5524 76.875 40 76.875C60.3332 76.875 76.8749 60.3333 76.8749 40C76.8749 31.7914 74.1131 23.7793 69.0814 17.3285C68.1262 17.8534 67.0495 18.1329 65.9295 18.1329C64.1766 18.1329 62.5286 17.4506 61.289 16.2109C60.0494 14.9713 59.367 13.3234 59.367 11.5704C59.367 9.81752 60.0494 8.16957 61.289 6.92994C62.5286 5.69093 64.1766 5.00795 65.9295 5.00795C67.6824 5.00795 69.3304 5.69093 70.57 6.92994ZM62.492 11.5704C62.492 12.489 62.8497 13.3521 63.4991 14.0015C64.1479 14.6503 65.0109 15.0079 65.9295 15.0079C66.8475 15.0079 67.7111 14.6503 68.3605 14.0015C69.7003 12.6611 69.7003 10.4804 68.3605 9.14003C67.7111 8.49061 66.8475 8.13295 65.9295 8.13295C65.0115 8.13295 64.1479 8.49061 63.4991 9.14003C62.8497 9.78944 62.492 10.6525 62.492 11.5704ZM33.5523 66.875C33.5523 67.738 34.2523 68.4375 35.1148 68.4375H44.8847C45.7477 68.4375 46.4472 67.738 46.4472 66.875V63.8458C48.5016 63.2928 50.4657 62.4786 52.3114 61.4154L54.4501 63.5541C54.7431 63.847 55.1404 64.0118 55.5554 64.0118C55.9693 64.0118 56.3672 63.847 56.6602 63.5535L63.5657 56.6431C64.1754 56.0327 64.1754 55.0433 63.5657 54.4336L61.4295 52.2974C62.4927 50.4517 63.3069 48.4875 63.8599 46.4331H66.8775C67.7405 46.4331 68.44 45.7336 68.44 44.8706V35.1007C68.44 34.2377 67.7405 33.5382 66.8775 33.5382H63.8593C63.3063 31.4844 62.4927 29.5203 61.4295 27.6746L63.5541 25.5499C63.8471 25.257 64.0119 24.859 64.0119 24.4446C64.0113 24.0302 63.8465 23.6322 63.5535 23.3392L56.6425 16.4337C56.0327 15.824 55.0434 15.824 54.433 16.4343L52.3114 18.5565C50.4657 17.4933 48.5016 16.6791 46.4472 16.1261V13.125C46.4472 12.262 45.7477 11.5625 44.8847 11.5625H35.1148C34.2523 11.5625 33.5523 12.262 33.5523 13.125V16.1267C31.4984 16.6791 29.5343 17.4933 27.6886 18.5565L25.5664 16.4343C24.9567 15.8246 23.9673 15.824 23.357 16.4337L16.4466 23.3398C16.153 23.6328 15.9882 24.0302 15.9882 24.4446C15.9882 24.859 16.153 25.257 16.4459 25.5499L18.5706 27.6746C17.5073 29.5203 16.6931 31.4838 16.1402 33.5382H13.1281C12.265 33.5382 11.5656 34.2377 11.5656 35.1001L11.5601 44.87C11.5595 45.2844 11.7243 45.6824 12.0172 45.9753C12.3102 46.2683 12.7075 46.4331 13.1226 46.4331H16.1402C16.6931 48.4875 17.5073 50.4517 18.5706 52.2974L16.4343 54.4336C15.8246 55.0433 15.824 56.0327 16.4343 56.6431L23.3399 63.5535C23.6328 63.8464 24.0302 64.0118 24.4446 64.0118H24.4452C24.8596 64.0118 25.257 63.847 25.5499 63.5541L27.688 61.4154C29.5343 62.4786 31.4984 63.2928 33.5523 63.8458V66.875ZM28.3008 58.1293C27.6825 57.7295 26.8689 57.8162 26.3477 58.3368L24.4452 60.2393L19.7486 55.5389L21.6492 53.6377C22.1698 53.1171 22.2565 52.3035 21.8567 51.6852C20.4401 49.4928 19.444 47.0898 18.8971 44.5422C18.7421 43.8226 18.1061 43.3081 17.3694 43.3081H14.6857L14.6893 36.6632H17.3694C18.1061 36.6632 18.7421 36.1493 18.8971 35.4291C19.444 32.8821 20.4401 30.4791 21.8567 28.2867C22.2565 27.6685 22.1698 26.8549 21.6492 26.3342L19.7608 24.4452L24.4611 19.7485L26.3477 21.6357C26.8689 22.1564 27.6819 22.2424 28.3008 21.8433C30.4926 20.4266 32.8955 19.4305 35.4431 18.8837C36.1627 18.7286 36.6773 18.092 36.6773 17.356V14.6875H43.3222V17.3553C43.3222 18.092 43.8361 18.7286 44.5563 18.8831C47.1033 19.4305 49.5069 20.426 51.6986 21.8427C52.3169 22.2424 53.1305 22.1564 53.6511 21.6351L55.5383 19.7485L60.2387 24.4452L58.3502 26.3336C57.829 26.8549 57.7429 27.6685 58.1427 28.2867C59.5593 30.4791 60.5548 32.8821 61.1023 35.4291C61.2567 36.1493 61.8933 36.6632 62.63 36.6632H65.315V43.3081H62.63C61.8933 43.3081 61.2573 43.8226 61.1023 44.5422C60.5554 47.0892 59.5593 49.4928 58.1427 51.6846C57.7429 52.3035 57.8296 53.1171 58.3502 53.6377L60.2509 55.5383L55.5542 60.2386L53.6518 58.3368C53.1305 57.8156 52.3169 57.7295 51.6986 58.1293C49.5062 59.5459 47.1033 60.5414 44.5563 61.0889C43.8361 61.2439 43.3222 61.8799 43.3222 62.6166V65.3125H36.6773V62.6166C36.6773 61.8805 36.1627 61.2439 35.4431 61.0889C32.8961 60.542 30.4932 59.5459 28.3008 58.1293ZM40 27.0892C47.1192 27.0892 52.9108 32.8808 52.9108 40C52.9108 47.1191 47.1192 52.9108 40 52.9108C32.8809 52.9108 27.0893 47.1191 27.0893 40C27.0893 32.8808 32.8809 27.0892 40 27.0892ZM40 30.2142C34.6039 30.2142 30.2143 34.6039 30.2143 40C30.2143 45.3961 34.6039 49.7858 40 49.7858C45.3961 49.7858 49.7858 45.3955 49.7858 40C49.7858 34.6045 45.3961 30.2142 40 30.2142ZM54.3872 5.90941C54.7986 5.90941 55.2014 5.74218 55.4919 5.45165C55.7824 5.15929 55.9497 4.75646 55.9497 4.34508C55.9497 3.93615 55.7831 3.5327 55.4919 3.24034C55.2014 2.94982 54.7986 2.78258 54.3872 2.78258C53.9746 2.78258 53.5736 2.94982 53.2831 3.24034C52.9919 3.5327 52.8247 3.93431 52.8247 4.34508C52.8247 4.75768 52.9919 5.15929 53.2831 5.45165C53.5736 5.74218 53.9746 5.90941 54.3872 5.90941ZM24.5763 74.5764C24.8669 74.2859 25.2703 74.1187 25.6811 74.1187C26.0918 74.1187 26.4953 74.2859 26.7858 74.5764C27.0763 74.8669 27.2436 75.2704 27.2436 75.6812C27.2436 76.0919 27.0763 76.4954 26.7858 76.7859C26.4953 77.0764 26.0918 77.2437 25.6811 77.2437C25.2703 77.2437 24.8669 77.0764 24.5763 76.7859C24.2858 76.4954 24.1186 76.0938 24.1186 75.6812C24.1186 75.2704 24.2858 74.8669 24.5763 74.5764Z" fill="#595A6C"/>
</g>
<defs>
<filter id="filter0_i" x="-1" y="0" width="80.9999" height="81" filterUnits="userSpaceOnUse" color-interpolation-filters="sRGB">
<feFlood flood-opacity="0" result="BackgroundImageFix"/>
<feBlend mode="normal" in="SourceGraphic" in2="BackgroundImageFix" result="shape"/>
<feColorMatrix in="SourceAlpha" type="matrix" values="0 0 0 0 0 0 0 0 0 0 0 0 0 0 0 0 0 0 127 0" result="hardAlpha"/>
<feOffset dx="-1" dy="3"/>
<feGaussianBlur stdDeviation="0.5"/>
<feComposite in2="hardAlpha" operator="arithmetic" k2="-1" k3="1"/>
<feColorMatrix type="matrix" values="0 0 0 0 0 0 0 0 0 0 0 0 0 0 0 0 0 0 0.53 0"/>
<feBlend mode="normal" in2="shape" result="effect1_innerShadow"/>
</filter>
</defs>
</svg>


